<mxfile host="app.diagrams.net" modified="2022-04-01T13:55:01.207Z" agent="5.0 (Macintosh; Intel Mac OS X 10_15_7) AppleWebKit/605.1.15 (KHTML, like Gecko) Version/15.4 Safari/605.1.15" etag="7pdTdUS5mMkPMrQiiDCW" version="17.4.0" type="github">
  <diagram id="k364arCdmwFCV6oe1WjC" name="Page-1">
    <mxGraphModel dx="1213" dy="1585" grid="1" gridSize="10" guides="1" tooltips="1" connect="1" arrows="1" fold="1" page="0" pageScale="1" pageWidth="1400" pageHeight="850" math="0" shadow="0">
      <root>
        <mxCell id="0" />
        <mxCell id="1" parent="0" />
        <mxCell id="BL0fxwx5DuhP13sKB6l1-1" value="Staging" style="points=[[0,0],[0.25,0],[0.5,0],[0.75,0],[1,0],[1,0.25],[1,0.5],[1,0.75],[1,1],[0.75,1],[0.5,1],[0.25,1],[0,1],[0,0.75],[0,0.5],[0,0.25]];outlineConnect=0;gradientColor=none;html=1;whiteSpace=wrap;fontSize=12;fontStyle=0;container=1;pointerEvents=0;collapsible=0;recursiveResize=0;shape=mxgraph.aws4.group;grIcon=mxgraph.aws4.group_aws_cloud_alt;strokeColor=#232F3E;fillColor=none;verticalAlign=top;align=left;spacingLeft=30;fontColor=#232F3E;dashed=0;" parent="1" vertex="1">
          <mxGeometry y="322" width="440" height="318" as="geometry" />
        </mxCell>
        <mxCell id="ivI6aTwEnNeu_NT6JWWp-5" value="" style="edgeStyle=orthogonalEdgeStyle;rounded=0;orthogonalLoop=1;jettySize=auto;html=1;strokeWidth=2;strokeColor=#666666;" parent="BL0fxwx5DuhP13sKB6l1-1" source="ivI6aTwEnNeu_NT6JWWp-3" target="ivI6aTwEnNeu_NT6JWWp-4" edge="1">
          <mxGeometry relative="1" as="geometry" />
        </mxCell>
        <mxCell id="ivI6aTwEnNeu_NT6JWWp-3" value="EKS Cluster" style="sketch=0;points=[[0,0,0],[0.25,0,0],[0.5,0,0],[0.75,0,0],[1,0,0],[0,1,0],[0.25,1,0],[0.5,1,0],[0.75,1,0],[1,1,0],[0,0.25,0],[0,0.5,0],[0,0.75,0],[1,0.25,0],[1,0.5,0],[1,0.75,0]];outlineConnect=0;gradientDirection=north;fillColor=none;strokeColor=#FFB366;dashed=0;verticalLabelPosition=bottom;verticalAlign=top;align=center;html=1;fontSize=12;fontStyle=0;aspect=fixed;shape=mxgraph.aws4.resourceIcon;resIcon=mxgraph.aws4.eks;shadow=0;" parent="BL0fxwx5DuhP13sKB6l1-1" vertex="1">
          <mxGeometry x="20" y="105" width="92.92" height="92.92" as="geometry" />
        </mxCell>
        <mxCell id="ivI6aTwEnNeu_NT6JWWp-4" value="Node instance profile role" style="sketch=0;outlineConnect=0;fillColor=#82B366;strokeColor=none;dashed=0;verticalLabelPosition=bottom;verticalAlign=top;align=center;html=1;fontSize=12;fontStyle=0;aspect=fixed;pointerEvents=1;shape=mxgraph.aws4.role;shadow=0;" parent="BL0fxwx5DuhP13sKB6l1-1" vertex="1">
          <mxGeometry x="260" y="123.25000000000004" width="100" height="56.41" as="geometry" />
        </mxCell>
        <mxCell id="BL0fxwx5DuhP13sKB6l1-2" value="Shared" style="points=[[0,0],[0.25,0],[0.5,0],[0.75,0],[1,0],[1,0.25],[1,0.5],[1,0.75],[1,1],[0.75,1],[0.5,1],[0.25,1],[0,1],[0,0.75],[0,0.5],[0,0.25]];outlineConnect=0;gradientColor=none;html=1;whiteSpace=wrap;fontSize=12;fontStyle=0;container=1;pointerEvents=0;collapsible=0;recursiveResize=0;shape=mxgraph.aws4.group;grIcon=mxgraph.aws4.group_aws_cloud_alt;strokeColor=#232F3E;fillColor=none;verticalAlign=top;align=left;spacingLeft=30;fontColor=#232F3E;dashed=0;" parent="1" vertex="1">
          <mxGeometry x="560" y="320" width="400" height="320" as="geometry" />
        </mxCell>
        <mxCell id="BL0fxwx5DuhP13sKB6l1-12" value="" style="edgeStyle=none;rounded=0;orthogonalLoop=1;jettySize=auto;html=1;strokeWidth=2;strokeColor=#666666;" parent="BL0fxwx5DuhP13sKB6l1-2" source="BL0fxwx5DuhP13sKB6l1-3" target="ivI6aTwEnNeu_NT6JWWp-1" edge="1">
          <mxGeometry relative="1" as="geometry">
            <mxPoint x="240" y="149.42138888888894" as="targetPoint" />
          </mxGeometry>
        </mxCell>
        <mxCell id="BL0fxwx5DuhP13sKB6l1-3" value="IAM Role" style="sketch=0;outlineConnect=0;fillColor=#82B366;strokeColor=none;dashed=0;verticalLabelPosition=bottom;verticalAlign=top;align=center;html=1;fontSize=12;fontStyle=0;aspect=fixed;pointerEvents=1;shape=mxgraph.aws4.role;shadow=0;" parent="BL0fxwx5DuhP13sKB6l1-2" vertex="1">
          <mxGeometry x="60" y="121.22" width="100" height="56.41" as="geometry" />
        </mxCell>
        <mxCell id="ivI6aTwEnNeu_NT6JWWp-1" value="AWS Resources" style="sketch=0;points=[[0,0,0],[0.25,0,0],[0.5,0,0],[0.75,0,0],[1,0,0],[0,1,0],[0.25,1,0],[0.5,1,0],[0.75,1,0],[1,1,0],[0,0.25,0],[0,0.5,0],[0,0.75,0],[1,0.25,0],[1,0.5,0],[1,0.75,0]];gradientDirection=north;outlineConnect=0;fillColor=none;strokeColor=#b85450;dashed=0;verticalLabelPosition=bottom;verticalAlign=top;align=center;html=1;fontSize=12;fontStyle=0;aspect=fixed;shape=mxgraph.aws4.resourceIcon;resIcon=mxgraph.aws4.general;connectable=1;strokeOpacity=100;strokeWidth=11;" parent="BL0fxwx5DuhP13sKB6l1-2" vertex="1">
          <mxGeometry x="260" y="109.71" width="80.29" height="80.29" as="geometry" />
        </mxCell>
        <mxCell id="ICJu8EcKwX5RbnGvkZwL-11" value="" style="shape=waypoint;sketch=0;size=6;pointerEvents=1;points=[];fillColor=#82B366;resizable=0;rotatable=0;perimeter=centerPerimeter;snapToPoint=1;verticalAlign=top;strokeColor=none;dashed=0;fontStyle=0;shadow=0;" parent="BL0fxwx5DuhP13sKB6l1-2" vertex="1">
          <mxGeometry x="90" y="177.62500000000006" width="40" height="40" as="geometry" />
        </mxCell>
        <mxCell id="BL0fxwx5DuhP13sKB6l1-10" style="edgeStyle=none;rounded=0;orthogonalLoop=1;jettySize=auto;html=1;strokeColor=#666666;strokeWidth=2;dashed=1;" parent="1" target="BL0fxwx5DuhP13sKB6l1-3" edge="1">
          <mxGeometry relative="1" as="geometry">
            <mxPoint x="360" y="469" as="sourcePoint" />
          </mxGeometry>
        </mxCell>
        <mxCell id="ICJu8EcKwX5RbnGvkZwL-12" value="" style="edgeStyle=orthogonalEdgeStyle;rounded=0;orthogonalLoop=1;jettySize=auto;html=1;dashed=1;strokeWidth=2;strokeColor=#666666;" parent="1" source="t-HoMPGj-rCTbnShQ_Xg-4" target="ICJu8EcKwX5RbnGvkZwL-11" edge="1">
          <mxGeometry relative="1" as="geometry">
            <mxPoint x="378.9920727866786" y="831.5" as="sourcePoint" />
            <Array as="points">
              <mxPoint x="670" y="880" />
            </Array>
          </mxGeometry>
        </mxCell>
        <mxCell id="ICJu8EcKwX5RbnGvkZwL-13" value="" style="shape=waypoint;sketch=0;size=6;pointerEvents=1;points=[];fillColor=#82B366;resizable=0;rotatable=0;perimeter=centerPerimeter;snapToPoint=1;verticalAlign=top;strokeColor=none;dashed=0;fontStyle=0;shadow=0;" parent="1" vertex="1">
          <mxGeometry x="560" y="419.995" width="40" height="40" as="geometry" />
        </mxCell>
        <mxCell id="t-HoMPGj-rCTbnShQ_Xg-1" value="Production" style="points=[[0,0],[0.25,0],[0.5,0],[0.75,0],[1,0],[1,0.25],[1,0.5],[1,0.75],[1,1],[0.75,1],[0.5,1],[0.25,1],[0,1],[0,0.75],[0,0.5],[0,0.25]];outlineConnect=0;gradientColor=none;html=1;whiteSpace=wrap;fontSize=12;fontStyle=0;container=1;pointerEvents=0;collapsible=0;recursiveResize=0;shape=mxgraph.aws4.group;grIcon=mxgraph.aws4.group_aws_cloud_alt;strokeColor=#232F3E;fillColor=none;verticalAlign=top;align=left;spacingLeft=30;fontColor=#232F3E;dashed=0;" vertex="1" parent="1">
          <mxGeometry y="720" width="440" height="318" as="geometry" />
        </mxCell>
        <mxCell id="t-HoMPGj-rCTbnShQ_Xg-2" value="" style="edgeStyle=orthogonalEdgeStyle;rounded=0;orthogonalLoop=1;jettySize=auto;html=1;strokeWidth=2;strokeColor=#666666;" edge="1" parent="t-HoMPGj-rCTbnShQ_Xg-1" source="t-HoMPGj-rCTbnShQ_Xg-3" target="t-HoMPGj-rCTbnShQ_Xg-4">
          <mxGeometry relative="1" as="geometry" />
        </mxCell>
        <mxCell id="t-HoMPGj-rCTbnShQ_Xg-3" value="EKS Cluster" style="sketch=0;points=[[0,0,0],[0.25,0,0],[0.5,0,0],[0.75,0,0],[1,0,0],[0,1,0],[0.25,1,0],[0.5,1,0],[0.75,1,0],[1,1,0],[0,0.25,0],[0,0.5,0],[0,0.75,0],[1,0.25,0],[1,0.5,0],[1,0.75,0]];outlineConnect=0;gradientDirection=north;fillColor=none;strokeColor=#FFB366;dashed=0;verticalLabelPosition=bottom;verticalAlign=top;align=center;html=1;fontSize=12;fontStyle=0;aspect=fixed;shape=mxgraph.aws4.resourceIcon;resIcon=mxgraph.aws4.eks;shadow=0;" vertex="1" parent="t-HoMPGj-rCTbnShQ_Xg-1">
          <mxGeometry x="20" y="105" width="92.92" height="92.92" as="geometry" />
        </mxCell>
        <mxCell id="t-HoMPGj-rCTbnShQ_Xg-4" value="Node instance profile role" style="sketch=0;outlineConnect=0;fillColor=#82B366;strokeColor=none;dashed=0;verticalLabelPosition=bottom;verticalAlign=top;align=center;html=1;fontSize=12;fontStyle=0;aspect=fixed;pointerEvents=1;shape=mxgraph.aws4.role;shadow=0;" vertex="1" parent="t-HoMPGj-rCTbnShQ_Xg-1">
          <mxGeometry x="260" y="123.25000000000004" width="100" height="56.41" as="geometry" />
        </mxCell>
        <mxCell id="t-HoMPGj-rCTbnShQ_Xg-5" value="Development" style="points=[[0,0],[0.25,0],[0.5,0],[0.75,0],[1,0],[1,0.25],[1,0.5],[1,0.75],[1,1],[0.75,1],[0.5,1],[0.25,1],[0,1],[0,0.75],[0,0.5],[0,0.25]];outlineConnect=0;gradientColor=none;html=1;whiteSpace=wrap;fontSize=12;fontStyle=0;container=1;pointerEvents=0;collapsible=0;recursiveResize=0;shape=mxgraph.aws4.group;grIcon=mxgraph.aws4.group_aws_cloud_alt;strokeColor=#232F3E;fillColor=none;verticalAlign=top;align=left;spacingLeft=30;fontColor=#232F3E;dashed=0;" vertex="1" parent="1">
          <mxGeometry y="-80" width="440" height="318" as="geometry" />
        </mxCell>
        <mxCell id="t-HoMPGj-rCTbnShQ_Xg-6" value="" style="edgeStyle=orthogonalEdgeStyle;rounded=0;orthogonalLoop=1;jettySize=auto;html=1;strokeWidth=2;strokeColor=#666666;" edge="1" parent="t-HoMPGj-rCTbnShQ_Xg-5" source="t-HoMPGj-rCTbnShQ_Xg-7" target="t-HoMPGj-rCTbnShQ_Xg-8">
          <mxGeometry relative="1" as="geometry" />
        </mxCell>
        <mxCell id="t-HoMPGj-rCTbnShQ_Xg-7" value="EKS Cluster" style="sketch=0;points=[[0,0,0],[0.25,0,0],[0.5,0,0],[0.75,0,0],[1,0,0],[0,1,0],[0.25,1,0],[0.5,1,0],[0.75,1,0],[1,1,0],[0,0.25,0],[0,0.5,0],[0,0.75,0],[1,0.25,0],[1,0.5,0],[1,0.75,0]];outlineConnect=0;gradientDirection=north;fillColor=none;strokeColor=#FFB366;dashed=0;verticalLabelPosition=bottom;verticalAlign=top;align=center;html=1;fontSize=12;fontStyle=0;aspect=fixed;shape=mxgraph.aws4.resourceIcon;resIcon=mxgraph.aws4.eks;shadow=0;" vertex="1" parent="t-HoMPGj-rCTbnShQ_Xg-5">
          <mxGeometry x="20" y="105" width="92.92" height="92.92" as="geometry" />
        </mxCell>
        <mxCell id="t-HoMPGj-rCTbnShQ_Xg-8" value="Node instance profile role" style="sketch=0;outlineConnect=0;fillColor=#82B366;strokeColor=none;dashed=0;verticalLabelPosition=bottom;verticalAlign=top;align=center;html=1;fontSize=12;fontStyle=0;aspect=fixed;pointerEvents=1;shape=mxgraph.aws4.role;shadow=0;" vertex="1" parent="t-HoMPGj-rCTbnShQ_Xg-5">
          <mxGeometry x="260" y="123.25000000000004" width="100" height="56.41" as="geometry" />
        </mxCell>
        <mxCell id="ICJu8EcKwX5RbnGvkZwL-14" value="" style="edgeStyle=orthogonalEdgeStyle;rounded=0;orthogonalLoop=1;jettySize=auto;html=1;dashed=1;strokeWidth=2;strokeColor=#666666;" parent="1" source="t-HoMPGj-rCTbnShQ_Xg-8" target="BL0fxwx5DuhP13sKB6l1-3" edge="1">
          <mxGeometry relative="1" as="geometry">
            <mxPoint x="380.0020727866786" y="80" as="sourcePoint" />
            <mxPoint x="661.01" y="408.5" as="targetPoint" />
            <Array as="points">
              <mxPoint x="670" y="80" />
            </Array>
          </mxGeometry>
        </mxCell>
      </root>
    </mxGraphModel>
  </diagram>
</mxfile>
